<?xml version="1.0" encoding="UTF-8" standalone="no"?>
<!-- Created with Inkscape (http://www.inkscape.org/) -->

<svg
   width="1023.9999"
   height="1024"
   viewBox="0 0 270.9333 270.93336"
   version="1.1"
   id="svg1"
   xml:space="preserve"
   inkscape:version="1.4.2 (ebf0e940, 2025-05-08)"
   sodipodi:docname="master_icon.svg"
   inkscape:export-filename="icon_1024.png"
   inkscape:export-xdpi="96"
   inkscape:export-ydpi="96"
   xmlns:inkscape="http://www.inkscape.org/namespaces/inkscape"
   xmlns:sodipodi="http://sodipodi.sourceforge.net/DTD/sodipodi-0.dtd"
   xmlns="http://www.w3.org/2000/svg"
   xmlns:svg="http://www.w3.org/2000/svg"><sodipodi:namedview
     id="namedview1"
     pagecolor="#ffffff"
     bordercolor="#000000"
     borderopacity="0"
     inkscape:showpageshadow="2"
     inkscape:pageopacity="0.0"
     inkscape:pagecheckerboard="0"
     inkscape:deskcolor="#d1d1d1"
     inkscape:document-units="px"
     inkscape:zoom="0.62359708"
     inkscape:cx="593.33184"
     inkscape:cy="436.17908"
     inkscape:window-width="1728"
     inkscape:window-height="1051"
     inkscape:window-x="0"
     inkscape:window-y="38"
     inkscape:window-maximized="0"
     inkscape:current-layer="layer1"
     showguides="true"><sodipodi:guide
       position="27.154285,379.55048"
       orientation="1,0"
       id="guide1"
       inkscape:locked="false" /><sodipodi:guide
       position="243.96428,348.57762"
       orientation="1,0"
       id="guide2"
       inkscape:locked="false" /><sodipodi:guide
       position="177.35144,228.92903"
       orientation="0,-1"
       id="guide3"
       inkscape:locked="false" /><sodipodi:guide
       position="198.56572,26.969016"
       orientation="0,-1"
       id="guide4"
       inkscape:locked="false" /></sodipodi:namedview><defs
     id="defs1" /><g
     inkscape:groupmode="layer"
     id="layer2"
     inkscape:label="Background"
     transform="matrix(0.87890634,0,0,0.87890634,-16.823864,-47.732148)"><rect
       style="fill:#ffffff;fill-opacity:1;stroke-width:0.264583"
       id="rect1"
       width="270.93332"
       height="270.93332"
       x="37.806091"
       y="72.97287" /></g><g
     inkscape:label="Glyph"
     inkscape:groupmode="layer"
     id="layer1"
     transform="translate(-19.141819,-54.308571)"><path
       style="fill:#1e8afb;stroke:none"
       d="m 201.99969,127.93023 c -21.87382,21.87382 -44.00323,43.47407 -65.88125,65.35209 -5.58478,5.58478 -12.02766,10.92242 -17.09461,16.957 -1.62363,1.9337 -1.45039,4.72535 0.21783,6.57927 1.95896,2.17703 5.24118,1.59913 7.88095,1.59913 5.65992,0 11.27941,-0.26458 16.93333,-0.26458 3.01296,0 6.19207,0.49023 8.73125,-1.46297 5.79997,-4.46147 10.69418,-10.8187 15.875,-15.99952 12.5249,-12.5249 24.78227,-25.31144 37.30625,-37.83542 5.0277,-5.0277 9.798,-11.51602 15.61042,-15.61041 -0.66957,2.26516 -0.26459,5.05328 -0.26459,7.40833 0,5.39995 -1.48233,13.54959 0.88052,18.52083 1.31772,2.77236 4.38515,5.00109 6.52782,7.14375 3.231,3.23102 7.06352,8.35276 12.16981,5.41518 4.9263,-2.83403 2.91144,-13.04268 2.91144,-17.85059 v -47.88959 c 0,-5.29861 1.36606,-14.05909 -5.82084,-15.25968 -5.35438,-0.89447 -11.50154,-0.0862 -16.93333,-0.0862 -12.36049,0 -24.69308,0.26458 -37.04167,0.26458 h -11.64166 c -2.66012,0 -5.07989,-0.11385 -7.13232,1.87699 -5.38683,5.22513 0.78697,10.56308 4.48648,14.2626 2.09601,2.09599 4.39385,5.34063 7.14375,6.55803 2.29831,1.01747 5.22302,0.58572 7.67292,0.58572 5.48939,0 12.12195,1.00686 17.4625,-0.26459 m -9.78958,57.67917 c -4.19833,2.9574 -7.74493,7.48033 -11.37709,11.1125 -1.71235,1.71236 -4.28159,3.55978 -5.26818,5.82083 -0.71844,1.64649 -0.40447,3.56217 -0.62921,5.29167 -0.3082,2.37172 -1.16854,4.63003 -2.50293,6.61458 -2.13645,3.17742 -5.30812,5.77095 -8.00385,8.46667 l -14.81666,14.81667 c -6.91263,6.91263 -14.02677,14.99366 -24.60625,15.08125 v -0.26459 c 2.3614,-1.22502 4.21903,-3.68985 6.08542,-5.55625 l 11.1125,-11.1125 c 1.86034,-1.86046 4.49154,-4.59204 1.8233,-7.08433 -2.19519,-2.05043 -6.97947,-1.11775 -9.7608,-1.11775 -4.14813,0 -10.74284,-1.2532 -14.2875,1.26719 -6.94963,4.94143 -13.26462,19.60092 -23.547914,15.37706 -9.787122,-4.02005 -11.944444,-19.83845 -9.411697,-28.81508 1.993257,-7.06455 7.052494,-11.61262 12.056509,-16.66875 6.187302,-6.25175 12.299902,-12.56347 18.521852,-18.78542 4.25151,-4.25152 8.38179,-9.48253 13.75833,-12.34987 4.26376,-2.2739 9.36063,-2.79182 14.02292,-1.63854 1.85368,0.45853 4.7806,2.52584 6.61458,2.20425 1.71771,-0.3012 3.3301,-2.65844 4.49791,-3.82626 l 10.31876,-10.31875 c -3.03972,-3.758 -8.73279,-6.34475 -13.22917,-7.84931 -10.61179,-3.55086 -22.89788,-3.09979 -32.80833,2.40923 -4.67842,2.60064 -8.41536,6.18252 -12.17084,9.938 -8.51442,8.51443 -17.228413,16.87525 -25.445928,25.675 -3.929415,4.20783 -8.063707,7.70604 -11.116582,12.68958 -7.093227,11.57908 -8.674623,25.82495 -5.407421,38.89375 1.259523,5.0381 3.241534,9.92098 6.077863,14.2875 14.536617,22.37908 45.090408,31.46533 69.494158,20.29126 13.20639,-6.04699 23.78447,-18.15053 33.38241,-28.75792 4.51438,-4.98917 9.82436,-9.16285 13.57685,-14.81667 5.96325,-8.98477 7.45878,-19.63457 5.9919,-30.1625 -0.51049,-3.66377 -1.20684,-7.8141 -2.94491,-11.1125 z"
       id="path1" /></g></svg>
